<svg xmlns="http://www.w3.org/2000/svg" xmlns:xlink="http://www.w3.org/1999/xlink" viewBox="0 0 1531 581">
    <defs>
        <style>
            .cls-1 {
                opacity: 0;
                fill: url(#linear-gradient);
            }

            .cls-2 {
                fill: #22b296;
            }

            .cls-3 {
                fill: url(#linear-gradient-2);
            }
        </style>
        <linearGradient id="linear-gradient" x1="1465.42" y1="-113.6" x2="65.58" y2="694.6"
            gradientUnits="userSpaceOnUse">
            <stop offset="0" stop-color="var(--green)" />
            <stop offset="1" stop-color="var(--blue)" />
        </linearGradient>
        <linearGradient id="linear-gradient-2" x1="1345.12" y1="-117.96" x2="114.34" y2="592.63"
            xlink:href="#linear-gradient" />
    </defs>
    <g id="Layer_2" data-name="Layer 2">
        <g id="Layer_1-2" data-name="Layer 1">
            <rect class="cls-1" width="1531" height="581" />
            <circle class="cls-2" cx="970.5" cy="279.5" r="16.5" />
            <path class="cls-3"
                d="M87.8,429.54a61,61,0,1,0,113.08-31.72h54.78A111.52,111.52,0,0,1,147.2,541c-60-.84-109-49.83-109.87-109.86A111.47,111.47,0,0,1,148.77,318.07h1320A25.24,25.24,0,0,1,1494,343.31h0a25.24,25.24,0,0,1-25.24,25.24H152.64v.13c-1.27-.08-2.56-.13-3.85-.13h0A61,61,0,0,0,87.8,429.54Zm29.63-149.18L181,194.26,157.66,160,86,257.07a22.9,22.9,0,0,0-5.29,14.47q0,7.06,5.64,12.88a18.06,18.06,0,0,0,13.41,5.82Q110.37,290.24,117.43,280.36ZM88.31,46.57a19.83,19.83,0,0,0-6.88,15.35A19.62,19.62,0,0,0,86,74.63L241.29,281.07q7.07,9.18,17.29,9.17,7.07,0,14.12-5.64t7.06-15.53A21.22,21.22,0,0,0,275.52,256L120.25,49.57Q113.19,40.41,103,40.4,95.19,40.4,88.31,46.57Zm154.75,4.77-62.47,82.93,24,32.81,70.93-93.51a20.57,20.57,0,0,0,4.59-12.71q0-7.05-5.82-13.4a18.27,18.27,0,0,0-13.94-6.36Q250.46,41.1,243.06,51.34Zm92.1-9.88A21.1,21.1,0,0,0,313.63,63V267a21.11,21.11,0,0,0,21.53,21.53H419.5q34.23,0,57.7-16.59T513,227.25q12.36-28,12.36-62.28a162,162,0,0,0-6.89-47.82A119.05,119.05,0,0,0,498,77.63,94.52,94.52,0,0,0,464.67,51q-19.77-9.52-45.17-9.52ZM355.63,247.9l2.11,3.88V78.86L354.22,82H416q16.59,0,28.58,6.7a57.38,57.38,0,0,1,19.77,18.18,81.83,81.83,0,0,1,11.47,26.46,131.38,131.38,0,0,1,3.7,31.59A125,125,0,0,1,473,206.08q-6.52,18.88-20.64,30.35T416,247.9Zm223-206.44A21.1,21.1,0,0,0,557.12,63V267a21.11,21.11,0,0,0,21.53,21.53h87.87a130.68,130.68,0,0,0,27.17-3,76.87,76.87,0,0,0,26.47-11.12q12.35-8.12,19.94-22.94t7.58-38.11q0-21.17-8.64-34.76a62.86,62.86,0,0,0-21.88-21.17,94.06,94.06,0,0,0-27.35-10.59,122.89,122.89,0,0,0-25-3l-1.42,15.88q23.29,0,39.17-6.88t24-19.41q8.12-12.51,8.12-29.11,0-31-16.59-46.93T667.58,41.46ZM681.16,90q7.59,6.88,7.59,22,0,12.7-8.11,19.41a28.07,28.07,0,0,1-18.35,6.71H598.77l4.23,3.17V77.45l-4.59,5.65h62.82Q673.58,83.1,681.16,90Zm-.88,91.57a27.29,27.29,0,0,1,15.18,8.82q6.35,7.06,6.35,22.94,0,17.3-9.53,25.94t-25.76,8.65h-67l3.53,3.52V177l-3.18,2.82h64.23A83.66,83.66,0,0,1,680.28,181.55ZM897,286.18q16.57-5.82,25.76-13.58,9.87-7.75,9.88-17.29a17.79,17.79,0,0,0-18-17.65,26.93,26.93,0,0,0-12,3.18C900,242.25,897.14,244,894,246a46.56,46.56,0,0,1-12.53,5.12q-7.77,2.12-20.82,2.12a54.26,54.26,0,0,1-47.11-27q-7.93-13.23-7.94-32.29,0-17.28,3.88-28.58t10.59-18a38,38,0,0,1,15.88-9.53A66.89,66.89,0,0,1,855.67,135a46.18,46.18,0,0,1,20.64,4.77,47.28,47.28,0,0,1,16.24,12.88A32.19,32.19,0,0,1,899.78,171v9.52l7.77-7.05H778l10.59,35.29h134.8a22.48,22.48,0,0,0,14.83-5.3,18.14,18.14,0,0,0,6.7-13.76,90.79,90.79,0,0,0-7.23-36,98.89,98.89,0,0,0-19.59-29.81,93.24,93.24,0,0,0-28.41-20.3,80.27,80.27,0,0,0-34.05-7.41,87.06,87.06,0,0,0-44.11,12q-20.82,12-33.7,34.41T765,196.73q0,27.18,11.82,48.7a86.46,86.46,0,0,0,33.88,34.05Q832.73,292,862.73,292A102.43,102.43,0,0,0,897,286.18Zm244.49-183.85a21.17,21.17,0,0,0-6,15.35v25.76l12.71-4.59q0-4.93-5.12-12.17a67,67,0,0,0-14.47-14.29,83.33,83.33,0,0,0-22.06-11.65,81.68,81.68,0,0,0-27.87-4.59,77.76,77.76,0,0,0-43.06,12.53q-19.41,12.52-30.87,34.58t-11.47,51q0,28.58,11.47,50.64t31.23,34.58A80.69,80.69,0,0,0,1080.05,292a69,69,0,0,0,24.88-4.41,82.21,82.21,0,0,0,19.94-10.77,66.91,66.91,0,0,0,13.4-12.88q4.95-6.52,4.94-11.11l-7.76-3.18V267a21.14,21.14,0,0,0,6,15.35,21.72,21.72,0,0,0,30.35,0,21.14,21.14,0,0,0,6-15.35V117.68q0-9.53-6-15.53a20.61,20.61,0,0,0-15.18-6A20.28,20.28,0,0,0,1141.45,102.33Zm-82.93,143.1a52.41,52.41,0,0,1-18.17-21.18,67.48,67.48,0,0,1-6.53-30q0-16.95,6.53-30.35a52.47,52.47,0,0,1,18.17-21.18,47.27,47.27,0,0,1,26.82-7.76q15.53,0,27.17,7.76a52.49,52.49,0,0,1,18.18,21.18q6.52,13.41,6.53,30.35a67.62,67.62,0,0,1-6.53,30,52.43,52.43,0,0,1-18.18,21.18q-11.64,7.75-27.17,7.76A47.27,47.27,0,0,1,1058.52,245.43Zm234-145.57a73.78,73.78,0,0,0-18,9.7,76.91,76.91,0,0,0-13.76,12.88,79.91,79.91,0,0,0-8.82,12.88l5.29,1.06V121.21a21.16,21.16,0,0,0-6-15.35,21.71,21.71,0,0,0-30.34,0,21.12,21.12,0,0,0-6,15.35V267a21.1,21.1,0,0,0,6,15.35,21.71,21.71,0,0,0,30.34,0,21.14,21.14,0,0,0,6-15.35V176.61a45.51,45.51,0,0,1,4.77-21,36.4,36.4,0,0,1,14.29-15q9.52-5.64,22.94-5.65,13.75,0,21.17,5.65a28.72,28.72,0,0,1,10.23,15,72.57,72.57,0,0,1,2.83,21V267a21.1,21.1,0,0,0,6,15.35,21.71,21.71,0,0,0,30.34,0,21.14,21.14,0,0,0,6-15.35V176.61a45.51,45.51,0,0,1,4.77-21,36.4,36.4,0,0,1,14.29-15q9.53-5.64,22.94-5.65,13.76,0,21.17,5.65a28.72,28.72,0,0,1,10.23,15,72.57,72.57,0,0,1,2.83,21V267a21.1,21.1,0,0,0,6,15.35,21.71,21.71,0,0,0,30.34,0,21.14,21.14,0,0,0,6-15.35V176.61a153.65,153.65,0,0,0-4.94-40.4q-4.94-18.18-18.17-29.12t-38.64-10.94a59.8,59.8,0,0,0-28.06,6.53,79.85,79.85,0,0,0-21.35,15.88q-8.82,9.36-13.05,17.47l-2.83,5.65,6,3.17q-4.23-21.51-17.64-35.11T1314,96.15A60.85,60.85,0,0,0,1292.48,99.86Z" />
        </g>
    </g>
</svg>